<svg width="36" height="36" viewBox="0 0 36 36" fill="none" xmlns="http://www.w3.org/2000/svg">
<path d="M29.835 14.3249C29.7104 14.0776 29.5197 13.8695 29.284 13.7239C29.0484 13.5783 28.777 13.5008 28.5 13.4999H21V4.49994C21.0161 4.17097 20.9235 3.84584 20.7364 3.57474C20.5494 3.30365 20.2783 3.10165 19.965 2.99994C19.6639 2.90086 19.3391 2.89974 19.0372 2.99676C18.7354 3.09378 18.4721 3.28394 18.285 3.53994L6.28504 20.0399C6.13468 20.2572 6.0444 20.5104 6.02333 20.7738C6.00226 21.0372 6.05114 21.3015 6.16504 21.5399C6.26992 21.8126 6.45212 22.0486 6.68927 22.2192C6.92642 22.3897 7.20821 22.4873 7.50004 22.4999H15V31.4999C15.0003 31.8163 15.1005 32.1244 15.2864 32.3803C15.4723 32.6363 15.7343 32.8269 16.035 32.9249C16.1857 32.9717 16.3423 32.9969 16.5 32.9999C16.7367 33.0006 16.9702 32.9452 17.1813 32.8383C17.3925 32.7314 17.5754 32.576 17.715 32.3849L29.715 15.8849C29.8767 15.6611 29.9734 15.3971 29.9945 15.1218C30.0157 14.8466 29.9605 14.5708 29.835 14.3249ZM18 26.8799V20.9999C18 20.6021 17.842 20.2206 17.5607 19.9393C17.2794 19.658 16.8979 19.4999 16.5 19.4999H10.5L18 9.11994V14.9999C18 15.3978 18.1581 15.7793 18.4394 16.0606C18.7207 16.3419 19.1022 16.4999 19.5 16.4999H25.5L18 26.8799Z" fill="white"/>
</svg>
