<svg width="36" height="36" viewBox="0 0 36 36" fill="none" xmlns="http://www.w3.org/2000/svg">
<path d="M15.45 16.125C15.6264 16.0065 15.7756 15.8519 15.8878 15.6715C15.9999 15.491 16.0725 15.2887 16.1006 15.0781C16.1287 14.8675 16.1118 14.6533 16.0509 14.4497C15.99 14.2462 15.8865 14.0578 15.7473 13.8973C15.6082 13.7367 15.4365 13.6075 15.2436 13.5183C15.0508 13.4291 14.8411 13.3818 14.6287 13.3797C14.4162 13.3776 14.2057 13.4207 14.0111 13.5061C13.8165 13.5914 13.6423 13.7172 13.5 13.875C12.9546 14.3559 12.3009 14.6975 11.5947 14.8706C10.8885 15.0437 10.1508 15.043 9.44494 14.8687C8.73903 14.6945 8.08587 14.3517 7.54136 13.8699C6.99685 13.388 6.57722 12.7814 6.31837 12.1019C6.05953 11.4224 5.96918 10.6904 6.05507 9.96835C6.14096 9.24633 6.40053 8.55589 6.81155 7.95611C7.22258 7.35633 7.77282 6.86508 8.41518 6.52441C9.05753 6.18374 9.77287 6.00379 10.5 5.99998C11.1316 6.00126 11.7558 6.13548 12.3321 6.39392C12.9084 6.65235 13.4239 7.02921 13.845 7.49998H12C11.6021 7.49998 11.2206 7.65802 10.9393 7.93932C10.658 8.22063 10.5 8.60216 10.5 8.99998C10.5 9.39781 10.658 9.77934 10.9393 10.0606C11.2206 10.3419 11.6021 10.5 12 10.5H16.5C16.8978 10.5 17.2793 10.3419 17.5606 10.0606C17.8419 9.77934 18 9.39781 18 8.99998V4.49998C18 4.10216 17.8419 3.72062 17.5606 3.43932C17.2793 3.15802 16.8978 2.99998 16.5 2.99998C16.1021 2.99998 15.7206 3.15802 15.4393 3.43932C15.158 3.72062 15 4.10216 15 4.49998V4.49998C13.8663 3.64801 12.5143 3.13491 11.1008 3.02019C9.68738 2.90547 8.27035 3.19384 7.01413 3.85185C5.75791 4.50986 4.71399 5.51054 4.00346 6.73781C3.29293 7.96509 2.9449 9.36866 2.99975 10.7857C3.05461 12.2028 3.51009 13.5752 4.31337 14.7439C5.11665 15.9126 6.2348 16.8296 7.53813 17.3885C8.84145 17.9474 10.2765 18.1254 11.6769 17.9018C13.0773 17.6781 14.3856 17.062 15.45 16.125V16.125ZM28.5 8.99998H22.5C22.1021 8.99998 21.7206 9.15802 21.4393 9.43932C21.158 9.72063 21 10.1022 21 10.5C21 10.8978 21.158 11.2793 21.4393 11.5606C21.7206 11.8419 22.1021 12 22.5 12H28.5C28.8978 12 29.2793 12.158 29.5606 12.4393C29.8419 12.7206 30 13.1022 30 13.5V28.08L27.645 25.905C27.3683 25.646 27.0039 25.5013 26.625 25.5H13.5C13.1021 25.5 12.7206 25.3419 12.4393 25.0606C12.158 24.7793 12 24.3978 12 24V22.5C12 22.1022 11.8419 21.7206 11.5606 21.4393C11.2793 21.158 10.8978 21 10.5 21C10.1021 21 9.72061 21.158 9.43931 21.4393C9.158 21.7206 8.99997 22.1022 8.99997 22.5V24C8.99997 25.1935 9.47407 26.338 10.318 27.182C11.1619 28.0259 12.3065 28.5 13.5 28.5H26.04L30.54 32.595C30.8013 32.8404 31.1419 32.984 31.5 33C31.7057 32.9977 31.9092 32.957 32.1 32.88C32.3683 32.7629 32.5965 32.5698 32.7564 32.3246C32.9163 32.0794 33.001 31.7927 33 31.5V13.5C33 12.3065 32.5259 11.1619 31.6819 10.318C30.838 9.47409 29.6934 8.99998 28.5 8.99998Z" fill="#ffc107"/>
</svg>