<svg width="963" height="131" viewBox="0 0 963 131" fill="none" xmlns="http://www.w3.org/2000/svg">
<path d="M169.31 129V77.5439H236.894V58.7279H169.31V18.9839H239.774V0.359863H148.574V129H169.31Z" fill="white"/>
<path d="M273.89 21.4799V0.359863H253.154L253.346 21.4799H273.89ZM274.082 129V32.9999H253.346V129H274.082Z" fill="white"/>
<path d="M313.859 129V73.8959C313.859 56.0399 321.539 49.5119 338.435 49.5119C355.907 49.5119 361.283 56.6159 361.283 73.7039V129H382.019V69.0959C382.019 47.3999 370.883 31.6559 346.115 31.6559C327.491 31.6559 317.315 41.2559 312.899 51.4319H312.131V33.5759H293.123V129H313.859Z" fill="white"/>
<path d="M443.93 130.92C469.658 130.92 486.746 118.248 486.746 98.6639V96.9359H466.202V98.4719C466.202 107.112 460.058 112.488 444.122 112.488C424.154 112.488 417.818 103.656 417.05 86.1839H486.362C486.938 83.3039 487.514 78.1199 487.514 73.1279C487.514 47.0159 469.466 31.6559 443.738 31.6559C415.322 31.6559 397.658 51.6239 397.658 81.1919C397.658 110.952 412.442 130.92 443.93 130.92ZM443.354 49.1279C459.674 49.1279 468.506 56.0399 467.738 72.3599H417.242C418.394 57.5759 425.306 49.1279 443.354 49.1279Z" fill="white"/>
<path d="M543.059 129C549.587 129 556.115 128.232 560.147 127.272V110.376H548.435C535.571 110.376 531.347 108.648 531.347 98.6639V50.8559H560.147V33.5759H531.347V9.95987H515.411L510.995 33.5759H494.675V50.8559H510.611V99.6239C510.611 121.128 521.747 129 543.059 129Z" fill="white"/>
<path d="M609.893 130.92C628.517 130.92 638.693 120.936 643.301 109.992H644.069V129H663.269V33.5759H642.533V87.3359C642.533 106.152 633.509 113.064 617.573 113.064C601.061 113.064 594.533 105.96 594.533 88.8719V33.5759H573.797V92.5199C573.797 114.216 584.933 130.92 609.893 130.92Z" fill="white"/>
<path d="M704.422 129V73.8959C704.422 56.0399 712.102 49.5119 728.998 49.5119C746.47 49.5119 751.846 56.6159 751.846 73.7039V129H772.582V69.0959C772.582 47.3999 761.446 31.6559 736.678 31.6559C718.054 31.6559 707.878 41.2559 703.462 51.4319H702.694V33.5759H683.686V129H704.422Z" fill="white"/>
<path d="M834.493 130.92C860.221 130.92 877.309 118.248 877.309 98.6639V96.9359H856.765V98.4719C856.765 107.112 850.621 112.488 834.685 112.488C814.717 112.488 808.381 103.656 807.613 86.1839H876.925C877.501 83.3039 878.077 78.1199 878.077 73.1279C878.077 47.0159 860.029 31.6559 834.301 31.6559C805.885 31.6559 788.221 51.6239 788.221 81.1919C788.221 110.952 803.005 130.92 834.493 130.92ZM833.917 49.1279C850.237 49.1279 859.069 56.0399 858.301 72.3599H807.805C808.957 57.5759 815.869 49.1279 833.917 49.1279Z" fill="white"/>
<path d="M2 0H131V129H2V0Z" fill="#5024FF"/>
<path d="M95.5494 61.2135C98.2161 62.7531 98.2161 66.6021 95.5494 68.1417L46.8812 96.2403C44.2146 97.7799 40.8812 95.8554 40.8812 92.7762L40.8812 36.579C40.8812 33.4998 44.2146 31.5753 46.8812 33.1149L95.5494 61.2135Z" fill="white"/>
<path d="M936.968 25.728V12.928L936.84 8.70399H937.224L944.136 24.192H949.896L956.936 8.70399H957.448L957.32 13.056V25.728H962.568V0H955.528L947.464 18.944H947.08L938.76 0H931.72V25.728H936.968ZM916.616 25.728V5.248H926.728V0H901V5.248H911.112V25.728H916.616Z" fill="white"/>
</svg>
